<?xml version="1.0" encoding="UTF-8"?>
<!DOCTYPE svg PUBLIC "-//W3C//DTD SVG 1.1//EN" "http://www.w3.org/Graphics/SVG/1.1/DTD/svg11.dtd">
<!-- Creator: CorelDRAW X7 -->
<svg xmlns="http://www.w3.org/2000/svg" xml:space="preserve" width="61mm" height="18mm" version="1.1" style="shape-rendering:geometricPrecision; text-rendering:geometricPrecision; image-rendering:optimizeQuality; fill-rule:evenodd; clip-rule:evenodd"
viewBox="0 0 6100 1800"
 xmlns:xlink="http://www.w3.org/1999/xlink">
 <defs>
  <style type="text/css">
   <![CDATA[
    .fil1 {fill:#B3B3B3}
    .fil0 {fill:#E6E6E6}
    .fil2 {fill:white;fill-rule:nonzero}
   ]]>
  </style>
 </defs>
 <g id="Слой_x0020_1">
  <metadata id="CorelCorpID_0Corel-Layer"/>
  <circle class="fil0" cx="616" cy="1593" r="132"/>
  <circle class="fil1" cx="214" cy="1593" r="132"/>
  <circle class="fil1" cx="1020" cy="1593" r="132"/>
  <circle class="fil1" transform="matrix(0.355713 0.147849 -0.147849 0.355713 692.61 1210.55)" r="344"/>
  <circle class="fil0" transform="matrix(0.355713 0.147849 -0.147849 0.355713 320.835 1056.03)" r="344"/>
  <circle class="fil0" transform="matrix(0.271024 0.273746 -0.273746 0.271024 907.597 887.745)" r="344"/>
  <circle class="fil1" transform="matrix(0.271024 0.273746 -0.273746 0.271024 624.335 601.638)" r="344"/>
  <circle class="fil1" transform="matrix(0.271024 0.273746 -0.273746 0.271024 1191.5 1174.5)" r="344"/>
  <circle class="fil1" transform="matrix(0.145205 0.3568 -0.3568 0.145205 1231.61 674.638)" r="344"/>
  <circle class="fil0" transform="matrix(0.145205 0.3568 -0.3568 0.145205 1079.85 301.727)" r="344"/>
  <circle class="fil1" transform="matrix(0.000494086 0.385215 -0.385215 0.000494086 1603.98 602.165)" r="344"/>
  <circle class="fil1" transform="matrix(0.000494086 0.385215 -0.385215 0.000494086 1603.47 199.556)" r="344"/>
  <circle class="fil1" transform="matrix(0.000494086 0.385215 -0.385215 0.000494086 1604.5 1005.68)" r="344"/>
  <circle class="fil0" transform="matrix(0.00142622 0.385212 -0.385212 0.00142622 1600.15 605.731)" r="344"/>
  <circle class="fil1" transform="matrix(0.00142622 0.385212 -0.385212 0.00142622 1598.66 203.124)" r="344"/>
  <circle class="fil1" transform="matrix(0.00142622 0.385212 -0.385212 0.00142622 1601.65 1009.25)" r="344"/>
  <circle class="fil1" transform="matrix(-0.146531 0.356258 -0.356258 -0.146531 1982.76 680.69)" r="344"/>
  <circle class="fil0" transform="matrix(-0.146531 0.356258 -0.356258 -0.146531 2135.91 308.345)" r="344"/>
  <polygon class="fil2" points="2558,637 2485,955 2403,955 2462,698 2341,698 2282,955 2200,955 2273,637 "/>
  <path id="1" class="fil2" d="M2733 842c-13,1 -26,2 -38,4 -12,1 -23,4 -31,7 -9,3 -16,7 -20,13 -5,6 -7,13 -7,22 0,9 3,14 9,18 6,3 15,5 27,5 7,0 16,-2 24,-5 9,-4 17,-8 25,-14l11 -50zm-20 88c-5,3 -10,7 -17,11 -7,4 -14,8 -19,10 -8,4 -16,6 -23,8 -7,2 -17,3 -29,3 -20,0 -36,-6 -49,-17 -13,-11 -19,-26 -19,-44 0,-19 4,-35 13,-48 9,-13 23,-24 40,-32 17,-7 37,-12 59,-16 23,-3 48,-5 74,-7 1,-1 1,-2 1,-4 1,-2 1,-4 1,-7 0,-10 -5,-17 -14,-21 -9,-4 -23,-6 -42,-6 -13,0 -27,2 -42,6 -15,5 -27,8 -34,11l-8 0 12 -57c9,-2 23,-5 41,-7 19,-3 38,-5 57,-5 37,0 65,5 82,15 18,10 27,25 27,46 0,3 -1,6 -1,11 -1,4 -1,8 -2,12l-38 163 -76 0 6 -25z"/>
  <path id="2" class="fil2" d="M3137 792c0,22 -4,43 -11,64 -7,21 -17,39 -29,54 -13,15 -28,28 -44,37 -17,8 -35,13 -55,13 -13,0 -25,-2 -35,-5 -11,-3 -21,-7 -29,-12l-23 100 -78 0 76 -328 77 0 -6 25c15,-10 28,-17 41,-23 12,-5 26,-8 40,-8 25,0 43,7 56,22 13,15 20,35 20,61zm-101 84c6,-9 11,-19 14,-31 4,-12 5,-25 5,-40 0,-13 -3,-22 -8,-29 -6,-7 -16,-11 -31,-11 -7,0 -14,2 -22,4 -7,3 -15,6 -23,11l-27 120c4,2 9,4 15,5 6,1 13,1 19,1 13,0 24,-2 34,-8 10,-5 18,-13 24,-22z"/>
  <path id="3" class="fil2" d="M3397 955l-77 0 43 -187 -62 0c-2,8 -5,16 -7,25 -2,9 -4,16 -5,21 -4,16 -8,30 -13,43 -4,12 -9,23 -13,32 -8,14 -17,27 -28,39 -12,11 -23,19 -36,23 -6,2 -12,4 -17,4 -5,1 -11,1 -18,1 -6,0 -13,0 -20,0 -8,-1 -12,-1 -13,-1l14 -62 3 0c0,0 1,0 3,1 1,0 3,0 4,0 9,0 15,-1 20,-3 4,-2 9,-7 14,-13 6,-8 12,-18 17,-29 5,-12 11,-30 17,-56 4,-12 7,-24 10,-35 2,-11 6,-25 10,-43l209 0 -55 240z"/>
  <path id="4" class="fil2" d="M3641 842c-14,1 -27,2 -39,4 -12,1 -22,4 -30,7 -9,3 -16,7 -20,13 -5,6 -7,13 -7,22 0,9 3,14 9,18 6,3 15,5 27,5 7,0 15,-2 24,-5 9,-4 17,-8 24,-14l12 -50zm-20 88c-5,3 -11,7 -18,11 -7,4 -13,8 -19,10 -8,4 -15,6 -22,8 -7,2 -17,3 -29,3 -20,0 -37,-6 -49,-17 -13,-11 -19,-26 -19,-44 0,-19 4,-35 13,-48 9,-13 22,-24 40,-32 17,-7 36,-12 59,-16 23,-3 48,-5 74,-7 0,-1 1,-2 1,-4 1,-2 1,-4 1,-7 0,-10 -5,-17 -14,-21 -10,-4 -24,-6 -42,-6 -13,0 -27,2 -42,6 -16,5 -27,8 -35,11l-7 0 11 -57c9,-2 23,-5 42,-7 19,-3 38,-5 56,-5 38,0 65,5 83,15 18,10 26,25 26,46 0,3 0,6 0,11 -1,4 -2,8 -2,12l-38 163 -76 0 6 -25z"/>
  <polygon id="5" class="fil2" points="4052,955 3977,955 4011,809 3934,904 3900,904 3870,801 3834,955 3761,955 3817,715 3900,715 3934,827 4023,715 4107,715 "/>
  <path id="6" class="fil2" d="M4318 805c1,-3 1,-5 1,-7 1,-3 1,-5 1,-7 0,-11 -4,-20 -11,-26 -7,-6 -17,-9 -30,-9 -16,0 -30,4 -40,13 -11,8 -19,20 -25,36l104 0zm-59 157c-41,0 -72,-10 -94,-28 -23,-18 -34,-43 -34,-74 0,-22 4,-42 11,-60 7,-19 18,-35 32,-48 13,-14 29,-24 49,-32 19,-8 41,-12 65,-12 35,0 62,7 80,22 19,14 28,35 28,64 0,9 -1,19 -3,28 -2,9 -5,19 -8,28l-179 0c0,0 0,1 0,2 0,1 0,2 0,2 0,17 6,30 18,39 12,10 30,14 54,14 17,0 33,-3 48,-8 15,-6 28,-12 39,-19l9 0 -15 62c-14,6 -30,11 -47,14 -16,4 -34,6 -53,6z"/>
  <polygon id="7" class="fil2" points="4657,955 4580,955 4604,852 4516,852 4492,955 4414,955 4470,715 4547,715 4528,799 4616,799 4635,715 4712,715 "/>
  <polygon id="8" class="fil2" points="4968,768 4892,768 4848,955 4771,955 4814,768 4738,768 4750,715 4980,715 "/>
  <path id="9" class="fil2" d="M5086 962c-16,0 -31,-3 -46,-7 -14,-4 -26,-10 -37,-18 -10,-9 -18,-19 -24,-32 -6,-13 -9,-27 -9,-44 0,-21 4,-41 12,-60 8,-18 20,-34 35,-48 14,-14 32,-24 53,-32 21,-8 43,-12 68,-12 14,0 29,1 43,5 15,3 28,8 40,14l-16 66 -11 0c-8,-11 -18,-18 -28,-23 -11,-5 -23,-7 -36,-7 -24,0 -43,8 -58,25 -15,17 -22,39 -22,65 0,17 4,31 14,40 9,8 23,13 42,13 14,0 28,-3 40,-9 12,-6 23,-13 31,-20l11 0 -16 65c-15,7 -29,11 -41,14 -11,3 -26,5 -45,5z"/>
  <path id="10" class="fil2" d="M5477 955l-81 0 -42 -95 -35 0 -22 95 -77 0 56 -240 77 0 -23 97c14,0 24,-1 29,-4 6,-4 14,-12 24,-25 3,-3 6,-8 11,-14 4,-6 7,-10 10,-14 9,-12 20,-22 32,-29 12,-7 28,-11 48,-11 6,0 12,0 18,0 7,0 11,0 14,0l-14 62 -20 0c-7,0 -14,2 -20,6 -5,4 -12,11 -18,21 -6,9 -11,16 -14,19 -2,3 -6,6 -11,9l58 123z"/>
  <polygon id="11" class="fil2" points="5757,955 5682,955 5716,811 5577,955 5513,955 5569,715 5643,715 5613,844 5741,715 5812,715 "/>
  <path id="12" class="fil2" d="M6023 805c1,-3 1,-5 1,-7 1,-3 1,-5 1,-7 0,-11 -4,-20 -11,-26 -7,-6 -17,-9 -30,-9 -16,0 -30,4 -40,13 -11,8 -19,20 -25,36l104 0zm-59 157c-41,0 -72,-10 -94,-28 -23,-18 -34,-43 -34,-74 0,-22 4,-42 11,-60 7,-19 18,-35 32,-48 13,-14 29,-24 49,-32 19,-8 41,-12 65,-12 35,0 62,7 80,22 19,14 28,35 28,64 0,9 -1,19 -3,28 -2,9 -5,19 -8,28l-179 0c0,0 0,1 0,2 0,1 0,2 0,2 0,17 6,30 18,39 12,10 30,14 54,14 17,0 33,-3 48,-8 15,-6 28,-12 39,-19l9 0 -15 62c-14,6 -30,11 -47,14 -16,4 -34,6 -53,6z"/>
  <path id="13" class="fil2" d="M2457 1255c0,13 -4,25 -10,37 -7,11 -16,21 -27,28 -10,7 -21,11 -32,14 -11,2 -25,3 -41,3l-151 0 55 -239 135 0c13,0 25,1 35,3 10,3 19,6 25,10 6,4 11,8 14,14 3,6 4,12 4,20 0,15 -4,27 -13,37 -9,11 -20,19 -32,24l0 3c10,3 19,8 27,16 7,8 11,18 11,30zm-72 -90c0,-6 -2,-11 -7,-15 -5,-3 -13,-4 -23,-4l-38 0 -11 48 42 0c12,0 21,-3 28,-8 6,-4 9,-11 9,-21zm-9 92c0,-8 -3,-14 -8,-17 -5,-4 -12,-6 -22,-6l-50 0 -13 56 53 0c13,0 22,-3 29,-8 7,-6 11,-14 11,-25z"/>
  <path id="14" class="fil2" d="M2667 1252c0,-8 -3,-14 -8,-19 -5,-4 -14,-7 -25,-7l-40 0 -14 63 43 0c10,0 17,-1 23,-4 6,-3 10,-7 13,-11 3,-4 5,-8 6,-12 1,-4 2,-7 2,-10zm80 -10c0,15 -4,30 -11,43 -7,14 -17,25 -29,33 -10,7 -21,12 -32,15 -11,3 -26,4 -44,4l-139 0 55 -239 77 0 -18 80 54 0c29,0 50,6 65,17 14,11 22,27 22,47zm82 95l-77 0 55 -239 78 0 -56 239z"/>
  <path id="15" class="fil2" d="M3156 1130c8,7 15,15 19,26 5,10 7,22 7,37 0,21 -3,41 -11,60 -7,19 -18,35 -32,49 -14,13 -30,24 -49,31 -19,8 -40,12 -63,12 -36,0 -63,-9 -82,-28 -19,-18 -28,-45 -28,-80 0,-16 2,-32 5,-50 3,-17 8,-35 15,-53 7,-18 15,-35 25,-50 9,-15 21,-28 34,-38 14,-12 31,-21 50,-26 19,-6 40,-10 63,-12 14,-1 31,-2 50,-3 19,-1 34,-2 45,-2l-11 56c-10,0 -19,0 -27,1 -8,0 -17,1 -27,1 -35,3 -59,6 -72,10 -13,4 -23,10 -30,17 -5,5 -10,12 -14,19 -4,7 -7,16 -10,27 13,-8 26,-14 40,-18 13,-5 27,-7 41,-7 13,0 24,2 34,5 11,3 20,8 28,16zm-54 81c0,-14 -4,-25 -11,-34 -8,-8 -19,-13 -34,-13 -8,0 -16,1 -25,3 -8,1 -18,4 -28,9 -3,10 -5,20 -7,33 -2,12 -3,23 -3,33 0,16 4,29 13,37 8,9 18,13 31,13 6,0 13,-1 21,-5 8,-3 15,-8 21,-14 7,-8 12,-17 16,-27 4,-10 6,-22 6,-35z"/>
  <path id="16" class="fil2" d="M3482 1186c0,22 -4,43 -11,63 -8,19 -18,36 -32,50 -14,15 -31,26 -49,34 -19,8 -41,12 -66,12 -36,0 -63,-9 -82,-26 -20,-17 -29,-40 -29,-71 0,-21 3,-41 11,-60 7,-20 17,-36 31,-51 14,-14 30,-26 50,-34 20,-8 42,-13 66,-13 36,0 64,9 83,26 19,17 28,40 28,70zm-100 78c7,-10 12,-21 15,-33 4,-11 5,-26 5,-43 0,-14 -3,-25 -9,-33 -7,-8 -17,-12 -31,-12 -11,0 -20,3 -29,8 -8,5 -15,12 -21,22 -6,9 -11,20 -14,33 -3,13 -5,27 -5,41 0,16 4,28 11,35 7,7 17,10 30,10 9,0 18,-2 27,-7 8,-5 15,-12 21,-21z"/>
  <path id="17" class="fil2" d="M3788 1175c0,22 -3,43 -10,64 -8,20 -17,38 -30,53 -13,16 -27,28 -44,37 -16,9 -34,13 -54,13 -13,0 -25,-1 -36,-4 -10,-3 -20,-7 -29,-12l-23 99 -77 0 76 -327 77 0 -6 25c15,-10 28,-18 40,-23 13,-6 26,-9 41,-9 24,0 43,8 56,22 13,15 19,36 19,62zm-100 84c6,-9 11,-20 14,-32 3,-12 5,-25 5,-39 0,-13 -3,-23 -8,-30 -6,-7 -16,-10 -31,-10 -7,0 -15,1 -22,4 -7,2 -15,6 -23,10l-28 121c5,2 10,3 16,4 6,1 12,2 19,2 13,0 24,-3 34,-8 10,-6 18,-13 24,-22z"/>
  <path id="18" class="fil2" d="M3986 1252c0,-8 -3,-14 -8,-19 -5,-4 -13,-7 -25,-7l-39 0 -15 63 44 0c9,0 16,-1 22,-4 6,-3 11,-7 14,-11 3,-4 5,-8 6,-12 1,-4 1,-7 1,-10zm80 -10c0,15 -4,30 -11,43 -7,14 -16,25 -29,33 -10,7 -20,12 -32,15 -11,3 -26,4 -44,4l-139 0 56 -239 76 0 -18 80 55 0c28,0 50,6 64,17 15,11 22,27 22,47zm83 95l-78 0 56 -239 77 0 -55 239z"/>
  <path id="19" class="fil2" d="M2457 1638c0,12 -4,25 -10,36 -7,12 -16,21 -27,29 -10,6 -21,11 -32,13 -11,3 -25,4 -41,4l-151 0 55 -240 135 0c13,0 25,2 35,4 10,2 19,5 25,9 6,4 11,9 14,15 3,5 4,12 4,19 0,15 -4,28 -13,38 -9,10 -20,18 -32,24l0 2c10,3 19,8 27,17 7,8 11,18 11,30zm-72 -90c0,-7 -2,-12 -7,-15 -5,-3 -13,-5 -23,-5l-38 0 -11 48 42 0c12,0 21,-2 28,-7 6,-5 9,-12 9,-21zm-9 91c0,-7 -3,-13 -8,-17 -5,-3 -12,-5 -22,-5l-50 0 -13 55 53 0c13,0 22,-2 29,-8 7,-5 11,-14 11,-25z"/>
  <path id="20" class="fil2" d="M2856 1610c0,-5 0,-9 -2,-12 -1,-4 -3,-7 -6,-10 -4,-3 -9,-5 -15,-7 -6,-1 -14,-2 -23,-2l-50 0 -19 82 53 0c11,0 21,-1 29,-4 8,-3 14,-7 19,-12 5,-5 9,-10 11,-16 2,-6 3,-12 3,-19zm87 -12c0,19 -5,38 -14,55 -10,17 -22,31 -37,42 -14,9 -29,16 -44,19 -15,4 -32,6 -52,6l-151 0 73 -318 248 0 -14 62 -166 0 -13 57 65 0c34,0 60,6 78,19 18,13 27,33 27,58z"/>
  <path id="21" class="fil2" d="M3167 1570c0,-3 0,-5 1,-8 0,-2 0,-4 0,-6 0,-11 -4,-20 -11,-26 -7,-6 -17,-9 -30,-9 -16,0 -29,4 -40,13 -11,8 -19,20 -25,36l105 0zm-59 156c-41,0 -73,-9 -95,-27 -22,-18 -34,-43 -34,-75 0,-21 4,-41 11,-59 8,-19 18,-35 32,-48 13,-14 29,-24 49,-32 20,-8 41,-12 65,-12 35,0 62,7 81,22 18,14 27,35 27,64 0,9 -1,19 -3,28 -2,9 -4,18 -8,28l-178 0c0,0 0,1 0,2 0,1 0,2 0,2 0,17 6,30 17,39 12,10 30,14 54,14 17,0 33,-3 48,-8 15,-6 28,-12 39,-19l9 0 -14 62c-15,6 -31,11 -48,14 -16,4 -34,5 -52,5z"/>
  <path id="22" class="fil2" d="M3500 1720l-77 0 43 -187 -62 0c-2,8 -4,16 -7,25 -2,9 -4,16 -5,21 -4,16 -8,30 -12,43 -5,12 -9,23 -14,32 -8,14 -17,27 -28,39 -11,11 -23,19 -36,23 -6,2 -11,4 -16,4 -5,1 -11,1 -18,1 -7,0 -14,0 -21,-1 -7,0 -11,0 -13,0l15 -62 2 0c0,0 2,0 3,1 2,0 3,0 5,0 8,0 15,-1 19,-3 5,-2 10,-7 15,-13 6,-8 11,-18 16,-29 5,-12 11,-30 18,-56 3,-12 6,-24 9,-35 3,-11 6,-25 11,-43l208 0 -55 240z"/>
  <path id="23" class="fil2" d="M3744 1607c-13,1 -26,2 -38,4 -12,1 -23,4 -31,7 -9,3 -16,7 -20,13 -5,6 -7,13 -7,22 0,9 3,14 9,18 6,3 15,5 27,5 7,0 16,-2 24,-5 9,-4 17,-8 25,-14l11 -50zm-20 88c-5,3 -10,7 -17,11 -7,4 -14,8 -19,10 -8,4 -16,6 -23,8 -7,2 -17,2 -29,2 -20,0 -36,-5 -49,-16 -13,-12 -19,-26 -19,-44 0,-19 5,-35 13,-48 9,-13 23,-24 40,-32 17,-7 37,-12 59,-16 23,-3 48,-5 74,-7 1,-1 1,-2 1,-4 1,-2 1,-4 1,-7 0,-10 -5,-17 -14,-21 -9,-4 -23,-6 -42,-6 -13,0 -27,2 -42,6 -15,5 -27,8 -34,11l-7 0 11 -57c9,-2 23,-5 41,-7 19,-3 38,-5 57,-5 37,0 65,5 82,15 18,10 27,25 27,46 0,3 -1,6 -1,11 -1,4 -1,8 -2,12l-38 163 -76 0 6 -25z"/>
  <path id="24" class="fil2" d="M4148 1557c0,22 -4,43 -11,64 -7,21 -17,39 -29,54 -13,15 -28,28 -44,36 -17,9 -35,14 -55,14 -13,0 -25,-2 -35,-5 -11,-3 -21,-7 -29,-12l-23 100 -78 0 76 -328 77 0 -6 25c15,-10 28,-17 41,-23 12,-5 26,-8 40,-8 25,0 43,7 56,22 13,15 20,35 20,61zm-101 84c6,-9 11,-19 14,-31 4,-12 5,-26 5,-40 0,-13 -3,-23 -8,-29 -6,-7 -16,-11 -31,-11 -7,0 -14,2 -22,4 -7,3 -15,6 -23,10l-27 121c4,2 9,4 15,5 6,1 13,1 19,1 13,0 24,-2 34,-8 10,-6 18,-13 24,-22z"/>
  <polygon id="25" class="fil2" points="4258,1808 4174,1808 4235,1715 4196,1480 4274,1480 4295,1637 4386,1480 4467,1480 "/>
  <path id="26" class="fil2" d="M4578 1726c-16,0 -31,-2 -46,-6 -14,-4 -26,-10 -37,-19 -10,-8 -19,-18 -24,-31 -6,-13 -9,-27 -9,-44 0,-21 4,-41 12,-60 8,-18 20,-34 35,-48 14,-14 32,-24 53,-32 21,-8 43,-12 67,-12 15,0 30,1 44,5 14,3 28,8 40,14l-16 66 -11 0c-8,-11 -18,-18 -28,-23 -11,-5 -23,-8 -36,-8 -24,0 -44,9 -58,26 -15,17 -22,39 -22,65 0,17 4,31 13,40 9,8 23,13 43,13 14,0 28,-3 40,-9 12,-6 22,-13 31,-20l11 0 -16 65c-16,7 -29,11 -41,14 -11,3 -26,4 -45,4z"/>
  <polygon id="27" class="fil2" points="4956,1720 4881,1720 4914,1576 4775,1720 4712,1720 4767,1480 4842,1480 4812,1609 4939,1480 5011,1480 "/>
 </g>
</svg>
