<?xml version="1.0" encoding="UTF-8"?>
<!DOCTYPE svg PUBLIC "-//W3C//DTD SVG 1.1//EN" "http://www.w3.org/Graphics/SVG/1.1/DTD/svg11.dtd">
<!-- Creator: CorelDRAW X7 -->
<svg id="regions-title" xmlns="http://www.w3.org/2000/svg" xml:space="preserve" width="95%" version="1.1" style="shape-rendering:geometricPrecision; text-rendering:geometricPrecision; image-rendering:optimizeQuality; fill-rule:evenodd; clip-rule:evenodd"
viewBox="0 0 5300 4500"
 xmlns:xlink="http://www.w3.org/1999/xlink">
 <defs>
  <style type="text/css">
   <![CDATA[
    path {cursor: pointer; position: relative;}
    .red {fill:#fea6a2}
    .orange {fill:#fee3a2}
    .blue {fill:#a2eefe}
    .purple {fill:#e08bfe}
    .fil4 {fill:gray}
   ]]>
  </style>
 </defs>
 <g id="regions-title">
  <path class="ed blue" d="M3995 2910c0,-21 20,-39 51,-62l31 -29c53,18 -5,21 82,31l25 44 37 -15c22,-8 1,12 29,-18 34,-37 -18,-6 17,-50 22,-27 46,-33 56,-44l44 -54c39,14 89,27 137,26 33,-78 3,-103 100,-73l37 -34c109,27 87,27 112,90l73 18c84,14 68,12 114,-12 13,-6 0,2 11,-5 1,-1 3,-2 5,-3 1,-1 3,-2 4,-3l19 -18c2,-1 8,-4 10,-5 11,-8 4,0 14,-9 48,-40 -12,-61 -27,-88 -17,-31 11,-9 -15,-61 -20,-40 -1,-33 -2,-67 -1,-22 -7,-6 -5,-28 1,-17 6,3 8,-33 -60,-11 -20,6 -63,14 -39,7 -29,-11 -69,-14 -24,23 -12,19 -50,32 -133,43 -104,59 -169,-1 -66,14 -3,48 -142,19 -36,-8 -12,2 -49,2 -25,-44 -19,-1 -34,-52 -13,-47 1,-12 -27,-46 -22,-26 -28,-78 -24,-114 0,0 -54,33 -64,40 -2,1 -3,3 -4,4 -23,19 -18,23 -55,21l-12 42 -85 6c-14,-16 -21,-47 -33,-73l-67 -16c-31,23 -74,63 -108,24l-16 -23c-1,-2 -3,-3 -4,-5 -48,8 -45,-4 -83,3 -45,8 -34,2 -70,-19l-50 28 4 76c-17,8 -19,4 -34,14 8,37 18,34 28,67 11,41 51,82 61,120 8,32 -4,7 0,24 4,17 -5,-7 5,11 31,54 -4,-32 9,13 -41,15 -38,-8 -83,-13 -30,75 -17,24 2,87 3,8 -5,80 -10,92 -18,39 -73,-14 -65,28 3,22 12,9 22,38 8,22 -6,13 13,41 38,3 22,-11 61,-31 30,-4 66,30 83,45 26,-18 51,-27 80,-2l93 31c2,0 4,1 6,1 3,2 6,3 9,3l27 -15z"/>
  <path class="ed blue" d="M1709 3350c-33,-68 -68,-104 -92,-144 -20,-36 3,-21 -10,-52 -51,-18 -33,3 -62,-42 -31,-48 -17,-22 -25,-83 -44,-5 15,12 -41,8 -35,-67 -25,-32 -51,-68 -68,-93 -70,-48 -119,-56 -4,-50 50,-79 96,-108 -22,-77 9,-40 -8,-110l-9 -27c-109,22 -69,9 -137,-56 -29,11 -23,29 -61,27 -37,-1 -26,-20 -61,-29 -17,14 -24,38 -32,54 -127,28 -231,-17 -176,72 14,23 33,104 33,113 0,35 -17,29 -34,43 -26,22 -9,11 -7,49l-33 16c3,34 12,12 4,37 -46,139 -80,82 -136,77 -72,-7 -106,20 -131,-45 -53,4 -36,7 -79,17 -14,81 -45,67 -68,91 -9,10 -2,2 -7,14 -4,9 2,4 -5,14 -43,4 -43,12 -76,16 -52,5 -27,-9 -65,17 -21,14 -37,17 -57,34 -62,53 -47,41 -83,93 -62,87 -81,80 -75,183 43,2 50,11 90,6 19,46 -11,19 23,34 58,2 27,5 50,47 12,23 31,36 21,67 -10,32 -28,35 -11,73 15,32 24,23 57,35 4,28 6,65 -2,89 -43,116 -83,36 -74,201 21,-3 32,-14 54,-22 30,-12 39,-21 57,-26 35,38 -6,29 70,36 19,61 -12,17 37,52 14,-4 57,-33 76,-52 48,-54 43,-22 80,-49 43,-31 2,-60 31,-99 52,-72 14,-33 43,-78 42,11 -10,21 59,23 38,1 46,-10 70,-11 62,-3 56,41 114,-22 65,16 -45,-24 18,11l76 19 4 -36c30,-1 38,6 53,4 25,-4 11,-10 46,-17 59,-10 58,8 91,27 54,31 115,-14 183,23 2,-2 4,-3 5,-4l19 -28c2,1 4,2 6,3 1,0 4,1 5,2l24 5c89,6 28,34 108,20 34,-6 37,-15 71,15 13,12 32,33 43,46 35,-4 29,-13 52,-11 18,2 18,10 55,10 6,-59 -48,-15 -37,-104 80,-51 79,-22 122,-19 0,-1 0,-4 0,-5l1 -17c1,-20 3,-37 25,-63 15,-18 18,-18 37,-21 47,-9 26,3 42,-13 -24,-16 -17,-1 -45,-15 -66,-31 -65,-66 -76,-90 -35,-75 -93,-97 -58,-142 12,-16 63,-20 79,-27 -9,-21 -51,-55 -74,-65 -46,6 -5,18 -57,13 -76,-7 -12,0 -56,20z"/>
  <path class="ed blue" d="M3991 2969c0,2 0,3 -1,5 -37,-14 -3,-3 -23,-15 -21,-12 -43,-7 -69,-14 -31,-9 -36,-30 -80,-38 -44,16 -11,26 -68,25 -25,-34 5,-33 -53,-48 -12,8 -17,9 -29,21 -14,12 -30,34 -52,39 -29,7 -74,-40 -151,27 2,52 17,52 52,88 74,81 62,-93 174,145 54,3 82,7 107,41 -49,79 -107,68 -54,191 -14,24 -24,19 -16,33 10,19 77,-5 137,-2 21,33 31,22 43,76l110 4c17,18 5,8 17,29 39,68 71,8 126,24 25,15 8,11 26,19 20,8 -11,-3 14,3 29,7 37,44 63,62 38,27 42,6 81,-1 91,-16 84,-22 151,24 39,-33 42,-65 100,-88 9,-1 31,24 89,18 30,-3 58,3 87,-3 -12,-67 -20,-20 -51,-50 -15,-14 2,-31 2,-64 -26,-11 -48,-25 -67,-37 -3,-55 23,-47 12,-82 -13,-37 -37,-7 -21,-62l-34 -11c17,-74 38,-32 57,-75 -18,-24 -44,-27 -58,-47 -14,-21 -12,-43 -18,-66 -2,-11 -2,10 -4,-18l48 -46c-16,-42 -38,-61 -39,-63 -18,-27 -10,-14 -40,-36 -8,-5 -21,-18 -28,-26 -35,-36 -13,-49 -48,-74 -32,-24 -46,-8 -44,-64 23,-14 5,1 22,-7 20,-9 10,5 19,-14 17,-36 -6,-25 -19,-30 -34,-13 -62,-16 -94,-12 -14,40 11,25 -22,46 -16,10 -17,1 -42,19 1,65 28,11 -31,61 -20,17 -33,43 -57,57 -46,-13 -49,-9 -67,-50l-50 7c-9,-25 0,-12 -21,-31 -23,10 -42,29 -55,51 18,31 74,69 3,90 -13,-15 -12,-19 -7,-25l-27 -6z"/>
  <path class="ed blue" d="M1334 1950c15,-33 7,2 33,-59 8,-20 1,-9 18,-28 59,-62 15,-26 22,-78 3,-24 20,-28 20,-64 -35,-31 -20,-31 -73,-13 -24,8 -62,16 -76,25 -17,11 -13,14 -24,29l-87 68c-43,-4 -41,-14 -101,-13l-21 50 31 37c-11,31 -19,25 -40,45 -35,32 -4,31 -46,38 -24,-27 -8,-23 -22,-50 -44,15 -99,74 -136,108 -30,-8 -44,-21 -62,-33 -123,-85 -105,2 -173,-23 -16,-7 -5,-2 -14,-10l-10 -15c-26,13 -29,2 -56,29 -54,54 -24,-62 -155,3 31,90 30,231 54,339 2,8 12,46 16,60 7,26 2,-3 9,29 17,87 20,71 45,155 7,24 13,19 27,48 36,79 8,67 7,115 0,42 28,69 13,136 -7,32 -20,15 -8,56 12,38 9,6 10,72l90 -12c10,14 14,21 24,39 38,3 72,14 94,9 46,-10 29,8 89,6 20,-37 18,-62 22,-84 8,-43 12,-11 19,-41l1 -16c0,-1 -4,-15 -4,-21 31,-9 30,-19 60,-28l-36 -116c-9,-17 -15,-36 -24,-54 -16,-31 -27,-14 -27,-42 42,-8 7,9 57,7 16,-1 31,-7 54,-9 40,-4 80,-2 120,-5 20,-29 12,-53 64,-67l52 44c32,-14 50,-59 104,0 21,23 32,56 108,13 54,-30 7,-30 60,-102 21,-28 35,-68 53,-99l-90 -42c-4,-19 -2,-19 4,-41 -78,-1 -78,1 -106,-60 26,-72 29,-28 69,-64 -7,-27 -15,-10 -12,-61 80,-40 38,-44 42,-86 3,-31 18,-15 -4,-56 -49,-29 -5,30 -44,-24 -16,-22 -25,-24 -40,-44z"/>
  <path class="ed blue" d="M4108 4153c7,-40 -19,-21 -1,-78 14,-45 20,-37 41,-66 25,-34 33,-121 67,-146 36,-27 15,1 40,-44 18,-33 17,-5 37,-39 8,-14 11,-25 13,-42 -42,-28 -38,-14 -78,-55 -28,-28 -24,-14 -44,-27 -22,-14 -4,-12 -29,-30 -27,-8 -119,67 -152,-60 -73,3 -121,10 -134,-59 -11,-3 -28,-8 -36,-10l-100 19c-49,62 -33,25 -43,104l-28 21c28,26 10,-10 48,34 31,37 16,9 53,29 4,84 -66,52 -123,123 -22,27 -12,30 -15,70 -172,95 -96,-199 -263,-141 -5,-7 -4,-57 -38,-70 -71,2 -148,4 -222,2 3,41 6,8 13,42 -48,61 -56,-9 -106,29 -54,40 -5,71 -96,118 -69,35 -66,-10 -93,45 -15,31 -14,37 -74,42 -163,13 -161,75 -197,90 -63,25 -39,-34 -108,6 -16,113 77,43 113,102 25,41 -16,48 -20,81 49,22 15,14 71,-40 -7,-33 -20,-28 -5,-68 67,-26 32,3 91,32 116,55 69,-78 161,-81l4 47c22,11 22,8 38,22l20 27c1,1 3,6 3,5 1,-1 2,3 3,5 32,-17 29,-34 75,-27l82 20c20,24 -4,48 26,97 15,-7 3,0 15,-9 2,-1 7,-5 9,-6 19,-18 6,-3 13,-19 13,-31 -8,-12 17,-43 27,-32 37,-16 66,-53l51 9c24,-39 41,-85 96,-85 3,36 -8,58 8,82 21,30 27,5 31,55 5,58 1,28 38,97l12 18c1,-1 3,3 4,5 25,-26 30,-19 75,-15 5,-60 18,-47 59,-68 29,-15 48,-38 87,-38 8,19 9,41 7,68 11,-3 33,-6 43,-10 28,-8 12,-7 30,-15 37,-18 36,-1 62,-33 23,8 17,14 47,13 51,-1 44,-44 112,26 99,102 14,90 63,128 16,6 25,1 41,10 21,13 9,40 17,21 1,-1 2,4 3,6l47 -1c-24,-63 3,-28 14,-70 7,-25 3,-27 -10,-39l-29 -20c11,-46 24,-23 -2,-73 -22,-42 -26,-34 -20,-70z"/>
  <path class="ed blue" d="M2037 443c-6,33 1,68 -6,94 -7,26 -31,43 -37,60 -9,29 4,65 -3,95 -9,42 -35,24 -35,57 73,18 140,-7 184,43 -36,62 -74,30 -79,132 -7,1 -18,2 -26,4l-95 20c-47,13 -4,6 -44,-3 -71,-17 -52,34 -67,65 -20,41 -5,35 -17,77 -73,-21 -39,-5 -89,26 -38,2 -81,-5 -100,20 -14,18 -1,15 -22,40 -14,17 -15,8 -28,32 -20,38 -16,182 -10,234 80,33 73,17 109,9 88,-21 83,28 83,90 0,60 -10,38 19,77 -15,39 -35,6 -1,118 106,39 53,23 112,-32 26,-25 22,-15 40,-53 10,-20 17,-35 38,-53 58,-49 19,-19 42,-55 28,13 7,33 48,43 46,11 31,-16 71,3 62,31 40,8 72,21 32,13 19,33 36,63 24,6 129,-5 82,48 27,10 43,18 66,20 12,-50 0,-30 33,-66 36,-37 12,-38 7,-68 -7,-49 2,6 5,-30l-8 -67c-7,-20 -10,-10 -16,-37 15,-15 25,-25 41,-36 71,-44 27,-59 71,-89 22,-16 39,-8 37,-39 -34,-26 -46,-3 -81,-17l-17 -38c-16,-30 -60,-38 -113,-101 -26,-31 -4,0 -13,-31 -9,-33 -29,-24 -27,-64l110 -5c13,-28 -1,-18 19,-40l-42 -42c2,-41 14,-25 13,-54 -1,-43 -48,-37 9,-86 21,-18 14,-10 36,-22 0,-89 38,-55 91,-70 24,-6 21,-11 53,-17l19 64c47,-21 17,12 42,-17 10,-11 7,-14 24,-21l43 -14c-58,-114 -41,-92 -84,-90 -10,1 -40,3 -41,3 -58,-2 -7,-27 -75,14 -37,-15 -16,-22 -44,-21 -22,1 -18,22 -44,-1 -23,-21 5,-12 -34,-35 -38,-22 -27,-30 -42,-103 -9,-43 4,-63 48,-89 21,-12 34,-10 45,-29 -10,-29 4,0 -19,-13 -8,-4 -3,1 -12,-7 -5,-4 -7,-8 -10,-12 -68,13 -73,19 -117,-38 -60,3 -97,32 -123,85 -42,88 -107,49 -127,48z"/>
  <path class="ed blue" d="M2095 3085c17,7 22,13 49,13l18 -61c32,-5 28,-1 58,4 4,-30 -7,0 4,-40 26,-92 -4,-74 22,-109 42,-55 168,-27 168,-27 2,-58 7,-63 32,-100 -17,-61 -48,-48 1,-130 13,-22 11,-24 11,-53l-33 -10c-16,-4 1,6 -20,-5 4,-20 3,-14 13,-28 63,-7 64,89 79,-56 -20,-13 -36,-9 -40,-39 -3,-27 11,-31 23,-52 -13,-22 -30,-27 -48,-46 3,-37 1,-7 12,-38 -35,-25 -26,-2 -56,-56 -17,-31 -10,-17 -3,-57 -33,-11 -31,-17 -49,-43 -22,-31 -64,-36 -124,-53 -55,-15 -5,-20 -47,-31 -31,26 -19,9 -26,54 -140,48 -112,11 -180,-5 -73,-17 -87,-59 -171,-7 32,142 44,113 76,157l57 87c24,33 42,128 45,167 -43,30 -67,18 -99,38 -25,15 -16,22 -41,19 -27,-4 -14,-13 -50,-17 -69,-7 -74,6 -159,-17 -39,-10 -24,-14 -77,-13 -58,0 -64,10 -75,59 -10,41 -4,10 -24,46 -27,49 3,145 -16,182 -4,6 -27,28 -35,32l-10 6c-1,1 -3,2 -5,3 -1,1 -3,2 -5,3 -5,3 -14,10 -17,12 32,22 21,-15 86,61 59,68 50,10 92,61 38,46 6,69 40,112 21,25 23,11 51,24 16,8 12,5 20,19l10 22c0,-1 1,5 3,6l213 -11c38,-3 12,-8 53,-12 49,-4 94,6 142,-6 90,-24 37,18 118,20 -23,-61 -7,-32 -45,-38 -19,-3 -39,-15 -41,-47z"/>
  <path class="ed blue" d="M3757 308c-19,-10 -24,-17 -38,-28l-57 13c-18,4 -36,55 -57,64 -61,2 -23,-28 -101,14 -3,32 7,46 12,70 -14,24 -15,14 -26,38 2,2 5,1 5,3 2,6 21,3 33,35 -35,37 -53,11 -83,46 -17,19 -8,18 -33,36l-66 63c-39,37 -17,52 -104,79 -19,6 -5,-2 -15,5 26,31 30,27 53,64l60 4c79,208 58,88 108,142l12 21c49,-24 39,-44 113,-39 5,-46 28,-68 70,-77 0,0 67,36 73,55 8,27 -6,28 9,53 11,19 20,12 36,28 -5,33 2,-10 -5,16 -11,40 1,17 0,50 -36,-1 -8,-3 -22,-6 -37,-8 -24,15 -51,27 -52,24 -9,-40 -88,2 -31,16 -50,29 -70,52 -38,43 -33,26 -71,51 -7,45 -5,41 -15,76 42,27 64,30 64,98 0,54 -30,95 -46,142 -12,36 -3,49 0,84 3,36 -6,24 -33,56 15,48 49,-25 15,79 52,-2 55,-49 82,-77 57,-3 35,14 84,14 50,1 33,-16 92,-14 12,21 2,15 22,34 58,-18 -1,-2 59,-59l-2 -136 -48 -25c-31,-20 -83,-64 -36,-103 28,-20 50,1 68,4 27,4 34,-9 73,-13 -7,-44 -11,-2 -13,-48l49 -39c9,-12 25,-47 32,-60 72,25 -4,31 110,20 31,-2 90,18 115,-54 43,-127 3,-67 55,-106 39,-31 -13,-37 15,-67 9,-10 3,-2 14,-10 16,-12 2,1 13,-10 -1,-55 2,-97 -58,-156 -18,-18 -44,-29 -35,-72 5,-23 33,-46 56,-59 -5,-37 -13,-30 -15,-57 -2,-46 13,-11 7,-55 -8,-53 21,-55 -17,-96 -27,12 -34,46 -67,22 -22,-15 -12,-20 -24,-30 -26,-20 -12,17 -38,-24 -21,-32 2,-51 -33,-73 -88,-58 -6,-44 -59,-52 -63,0 -65,-16 -97,-44 -44,-37 -50,6 -86,29z"/>
  <path class="ed blue" d="M2658 819c-96,-10 -56,6 -89,-58 -31,1 -17,5 -50,11 -25,4 -22,-2 -43,1l0 11c0,6 1,10 0,17 -4,38 1,4 -64,61 13,55 47,47 7,105 20,14 7,1 20,24 1,1 2,3 3,5 13,26 -4,-17 4,9l1 69c-66,32 -37,-6 -104,9 13,26 12,57 29,74l102 64c22,18 15,21 26,31 26,23 45,-1 71,42 6,21 1,25 4,46 4,33 7,21 16,49 42,-5 27,-20 61,-3 14,7 34,21 54,30 56,-48 34,-10 84,-76 24,11 40,33 61,53 18,18 37,43 59,51 2,-28 -8,-85 71,-93 86,-10 77,65 86,86 30,0 4,-6 36,-5 27,2 10,-3 30,12l30 -41c77,41 75,-41 175,-24 7,16 8,21 11,31 1,4 -14,45 76,1 3,-2 51,-29 55,-33 1,-90 -11,-48 -62,-93 -5,-34 -10,-79 9,-107 24,-34 40,-18 75,-55 80,-85 60,-47 107,-76 18,-11 11,-16 34,-31 30,24 -7,15 31,36 21,-11 34,-29 50,-42l-42 -42c8,-23 23,-31 2,-49 -78,-73 -91,43 -92,49 -42,5 -52,-5 -88,12 -36,18 -30,36 -67,38 -29,-24 -14,-18 -20,-32 -17,-36 -53,-5 -78,-94 -29,9 -15,11 -39,18 -10,-18 -3,-18 -13,-36 -13,-25 -14,-11 -28,-33 -22,-33 -21,-86 -73,-50l-76 57 -71 -5c-55,1 -32,-14 -59,-21 -19,40 -15,36 -66,43 -41,6 -49,20 -77,-12 13,-33 13,-8 24,-46 6,-22 11,-40 14,-52l-128 17c-20,3 -60,4 -61,4 -18,6 -17,27 -28,43z"/>
  <path class="ed blue" d="M3080 3729c-6,-34 -28,-41 -9,-57l138 -19c72,-6 -7,-131 -5,-155 4,-40 27,-4 32,-120l-56 1c-28,-44 -21,-74 -35,-90 -29,56 -15,42 -88,48 -42,3 -12,14 -53,13 -23,0 -19,-9 -54,-14 -27,3 -62,79 -165,42 -21,-8 -21,-18 -43,-33 -35,17 -15,-8 -35,23 -6,11 -9,31 -17,44 -19,32 -46,25 -83,16 -137,-30 -117,-72 -137,-100 -175,38 -49,11 -117,98 -32,41 -44,4 -45,58 41,19 35,-4 72,26 48,38 28,16 62,37 45,28 42,126 -6,137l-29 -1c-111,-29 -118,7 -166,-3 -13,-2 -13,-7 -36,-5 -27,2 -43,21 -70,28 -29,-13 -54,-37 -89,-22 -53,24 -23,26 -95,15l-31 44c20,19 24,13 32,37 -46,40 -88,7 -152,24 -3,40 19,52 43,71 -4,23 -13,29 -9,63 78,60 58,8 111,1 71,-10 94,57 98,62 56,-4 38,-12 76,22 56,-19 8,-30 108,-29 69,0 52,12 50,84 15,14 21,15 37,31 -1,39 -7,4 -11,44l117 -16 -12 -82 47 -45c44,20 35,22 91,20 32,-41 49,-54 95,-70 54,-17 80,-23 144,-25 15,-38 19,-55 65,-64l71 -27c19,-13 8,-3 15,-15 28,-47 31,-130 144,-97z"/>
  <path class="ed blue" d="M2528 355l-46 7c-19,83 -42,33 -110,108 7,29 9,14 14,41 4,22 -1,27 6,46 28,80 167,55 238,53 142,-6 85,66 111,108 13,21 55,27 82,15 47,-21 19,-19 74,3l2 97c47,5 60,-14 81,-34 46,6 -1,11 130,16 25,-31 28,-24 58,-42 35,-21 24,-37 41,-67 50,-2 54,11 87,-25 21,-22 40,-32 59,-63 29,-48 31,-22 58,-58 20,-27 37,-49 66,-56 -15,-28 -7,-37 0,-70 -24,-10 -38,14 -106,-77 4,-26 51,-140 40,-158 -12,-18 -84,-16 -120,-40 -26,-17 -1,-13 -42,-18 -98,-14 -132,135 -215,1 -17,-27 -23,-66 -33,-80 -48,-3 -96,14 -120,53 -116,-23 -28,-56 -188,-54l-103 122c-77,78 -48,70 -64,172z"/>
  <path class="ed red" d="M3389 1752c68,-123 -3,-55 14,-118 7,-27 11,-9 21,-33 17,-42 -22,-35 -4,-87 11,-30 27,-40 33,-79l-92 31c-56,-35 -21,0 -45,-53 -51,-2 -56,5 -84,35 -35,-5 -24,-16 -66,-5l-3 97 -34 14c0,40 13,28 28,52 17,27 7,40 13,72 22,115 17,39 43,115 51,140 24,132 -42,157 -39,15 -7,5 -38,38 -26,4 -41,0 -60,10 -16,9 -11,17 -39,29l-75 -33 -40 -64c-40,10 -32,15 -65,-6 -19,-12 -32,-17 -45,-35 19,-45 43,-32 48,-49 0,-3 3,-3 4,-4 -30,-28 -57,-21 -58,-76 -1,-65 22,-57 -34,-84 -4,-73 7,-37 29,-84 -37,-37 -77,-62 -98,-109 -18,-39 -6,-44 -45,-62 -60,-27 -42,52 -100,-45l-9 -14c-43,34 -20,21 -47,61 -18,27 -34,25 -60,47 -1,37 15,25 13,76 -4,93 -8,30 9,70 9,20 8,9 -4,40 -27,77 -17,11 -47,63 11,37 -3,-3 32,38 1,1 3,3 4,4 28,34 -5,12 48,26 4,41 2,70 22,99 30,-33 47,-32 85,1 49,41 67,131 66,193 -1,75 18,39 43,83 -20,26 -44,15 -41,45 2,23 19,15 39,44 60,87 47,2 89,67 25,0 43,4 61,-4 39,-18 30,-51 83,25 49,71 71,2 95,-4 16,-3 23,9 57,6 14,-1 43,-26 98,43l8 -10c24,-31 -11,11 7,-10 20,-23 19,-12 34,-24l22 -32c10,-17 3,-3 10,-15l13 -39c24,8 34,16 53,23 37,-20 29,-30 80,-81 1,-1 3,-3 4,-4l6 -9c16,-26 -4,-11 29,-33l-40 -19c-3,-34 3,-73 -5,-103 -2,-12 -23,-59 -24,-77 16,-14 36,-15 46,-37 13,-32 -2,-37 -2,-64 0,-17 12,-46 6,-68 -8,-30 -24,-16 -49,-31z"/>
  <path class="ed red" d="M1932 1702c-15,17 -24,11 -47,44 -32,46 -43,61 -122,11 -64,-41 -17,-252 -41,-280 -26,-14 -4,-3 -38,3 -15,2 -37,3 -53,3 -56,-1 -42,-20 -100,-14 -28,67 -30,51 -42,72 -17,29 15,14 -17,73 -12,22 -16,22 -19,44l63 5c33,72 58,33 43,146 -60,38 -52,29 -118,26 -18,22 -73,104 -72,128 40,22 37,-1 74,46 31,39 15,35 9,77l40 16c-18,26 -6,3 -24,18 -28,24 -14,38 -66,56 13,28 24,48 1,71 -35,36 -50,-5 -43,53 27,16 67,17 102,25 3,27 -2,26 -11,43 21,7 14,8 31,14 29,11 48,6 67,48 -18,44 -38,20 -41,79 80,1 46,-27 111,3 23,10 206,28 209,27 16,-2 18,-10 42,-14 35,-7 29,8 48,-15 37,-36 3,-64 -12,-80 9,-27 20,-21 7,-45l-59 -78c-92,-127 -50,-85 -79,-151 -16,-35 -19,-5 -6,-69 24,-14 51,-3 94,-64l45 47c19,13 34,17 60,22 42,10 76,37 122,11 45,-24 16,-10 41,-42 22,-27 23,-18 54,-31 11,-5 19,-9 27,-18 45,-51 -21,-49 55,-60 -10,-57 -19,-13 11,-79 27,-59 48,-29 71,-106 -50,-43 -76,-4 -56,-67 -152,10 -61,-96 -219,-64 -25,-22 -33,-36 -61,-47l-52 49c-10,17 -18,51 -29,64z"/>
  <path class="ed red" d="M3711 2561c-13,-46 -52,-91 -67,-132 -42,-117 16,-47 8,-162l-43 -9c-12,-43 4,-30 -41,-44 -30,-9 -35,-9 -67,-3 -18,28 -12,41 -36,47 -24,6 -19,-13 -50,-21 -61,99 -104,43 -122,64 -26,29 23,52 -30,70 -55,18 -28,-12 -46,50 -40,0 -51,-32 -84,-52 -36,6 -46,17 -84,-1 -13,9 -4,2 -18,14 -24,23 -9,21 -25,51 -58,12 -46,-5 -87,35 1,2 3,4 3,5l10 15c20,48 -5,51 -12,65 -24,46 105,78 -48,120 -70,19 -49,4 -102,-4 5,25 22,31 48,38 52,12 13,-14 74,-10l12 42 64 -1 17 35c34,-11 5,-8 46,-19 -11,52 -30,29 -26,95 4,54 42,81 -30,75 -48,-4 6,20 -15,80 -10,29 -9,-4 -12,28 -2,14 4,15 3,38 -2,42 -13,22 -34,53 34,59 85,43 114,37 27,-6 60,0 78,-6 29,-10 16,-24 23,-62 135,-51 61,-68 118,-96 54,-26 25,12 55,-51 35,-74 63,-40 95,-35 29,5 22,2 50,11 65,19 47,-10 94,-10l81 -3c-39,-40 -23,-13 -39,-71 -27,-96 0,-21 -7,-98 30,2 33,14 60,8 13,-117 -16,-69 -7,-124 7,-48 31,-63 79,-62z"/>
  <path class="ed purple" d="M2322 3417c32,-26 13,-32 17,-73 13,-6 59,-55 147,-49 84,5 -73,61 142,105 67,15 31,-11 52,-51 9,-18 59,-33 79,-35 36,24 -6,27 65,41 56,11 102,-13 102,-87 -1,-61 11,-46 14,-84 -17,-21 -35,-24 -44,-38 -9,-13 -10,-7 -5,-27l16 -26c-71,-44 -21,-35 -66,-74 -55,-48 -67,46 -144,-47l-60 -52c-27,28 -23,45 -74,75 -78,45 -32,27 -113,19 -4,-21 3,-21 10,-34 -75,-6 -64,22 -108,30 -47,9 -48,-50 -75,-62 -22,31 -21,70 -31,121l-61 -3c-6,77 54,80 -5,146 -38,-3 -25,-14 -53,-33 -33,-1 -96,-4 -126,3 -22,5 -11,9 -49,11 -18,1 -42,0 -61,1 -89,1 -140,13 -230,15 4,29 36,73 60,83 21,8 80,-10 124,-1 16,13 12,15 25,28 10,10 14,11 26,20 91,67 -38,83 -62,100 6,24 28,35 45,54 19,21 20,49 32,74 12,26 1,7 12,19l13 10c10,8 16,14 33,20 60,21 20,10 61,49 30,-38 51,-13 85,-3 48,15 39,-10 88,-10 62,0 110,-16 163,-6 27,4 25,7 58,5 8,-17 19,-44 22,-66 -87,-69 -250,-69 -124,-168z"/>
  <path class="ed purple" d="M3909 1251c-24,35 -12,53 -67,56 6,23 15,28 13,58 -53,32 -98,33 -152,11 8,102 86,49 107,101l0 63c4,28 0,47 7,69 62,26 56,-10 93,-16 36,27 25,27 8,74 40,-11 14,-16 53,-32 15,17 31,28 37,58l39 -8 5 25c76,4 101,91 97,137 -22,18 -14,14 -48,28 -31,12 -28,9 -30,47 56,-14 29,1 90,4 83,2 32,10 84,28 34,-26 11,-23 37,-48 27,4 30,15 45,39 32,52 7,7 55,35 17,10 26,33 43,49 38,36 13,8 28,62l40 -15c10,-6 7,-5 13,-10 13,-11 21,-21 55,-29 124,-31 159,71 161,-177 -33,-1 -3,3 -43,8l-67 -41c-5,-3 1,-3 -17,-7 -17,-5 -42,0 -64,-19 -18,-17 -5,-12 -23,-30l-40 -36c-11,-10 -4,-5 -18,-12 -23,-12 -16,-4 -35,-19 -8,-31 3,-71 -12,-96 -29,-47 -18,13 -32,-74 -47,-6 -26,10 -79,-48 1,-23 16,-52 28,-71 18,-31 37,-30 29,-64 -28,-13 -71,-4 -111,-11 -19,-42 5,-36 -44,-70 -23,-17 -58,-39 -91,-33 -51,9 -65,26 -122,20 -31,-4 0,-2 -23,2 -49,8 -1,0 -49,-8z"/>
  <path class="ed orange" d="M3597 3101c-65,9 -21,54 -115,-38 -39,-38 -56,-48 -42,-115 -38,-1 -27,2 -54,-10 -79,-35 -39,13 -67,52 -14,19 -23,12 -36,47 -41,-7 33,7 -15,-6 -26,-7 -1,-3 -55,50 -5,5 -42,35 -42,35 -22,28 12,12 -26,43 -63,51 -31,10 -92,23 -20,4 -22,7 -57,12 -43,7 -51,21 -34,97 4,21 28,27 49,35 47,-45 29,-13 83,-26 44,-11 13,-40 77,-33 42,84 -7,94 75,75 27,-6 41,-9 50,7 17,31 -9,25 -21,37 -21,24 -5,23 -14,55 -15,53 -44,19 -10,104 31,76 17,34 10,104 65,5 54,-27 99,24 28,32 44,20 83,46 20,14 59,47 68,69 33,82 23,81 90,93 -13,-32 -22,-8 2,-43 75,-113 96,-70 126,-105 -10,-21 6,2 -11,-13l-36 -33c-27,-28 -22,0 -50,-38 2,-51 2,-17 19,-45 22,-38 3,-60 60,-98l-18 -90c9,-75 -39,30 22,-115 13,-32 27,-23 45,-58 -60,-17 -83,2 -107,-47 -43,-91 -7,-26 -56,-95z"/>
  <path class="ed orange" d="M2914 2620c-19,-28 -28,-22 -38,-53 12,-37 31,-22 26,-60 -4,-34 -20,-13 -25,-54 35,-33 48,-1 71,-69 -55,-36 -22,-27 -51,-59 -28,13 -9,16 -46,20 -18,2 -51,0 -69,-1 -38,-35 15,-15 -45,-29 -33,-9 -24,-1 -39,-30 -23,-41 -9,-14 -38,-38 -19,-15 -14,-21 -27,-39 -77,3 -36,44 -82,75l-85 53c20,22 41,12 42,48 0,26 -17,22 -21,61 41,15 65,0 72,46 -17,16 -4,8 -35,14 6,46 6,20 -7,56 20,16 18,2 26,28 -28,20 -24,17 -61,19 -3,62 -27,34 -31,81 -5,63 42,30 1,120 -18,41 8,45 -43,93 -38,-3 -20,-27 -82,-13 -77,17 -54,11 -63,28 9,7 2,2 17,7 3,1 10,2 12,3 28,11 16,5 41,49 77,-1 78,-66 161,14 80,-14 104,-74 139,-99 32,-23 34,-21 57,-20 -4,59 -22,-3 -19,43 25,23 11,6 51,2 4,71 2,65 78,57 68,-7 21,18 93,37 5,41 -6,48 25,57 11,-21 -7,-13 -4,-41 4,-27 9,-16 25,-39 -3,-44 -24,-27 -11,-85l56 -10c-3,-34 -7,-3 -14,-43 -6,-40 18,-79 -65,-79 -40,-1 -31,3 -48,-35 -19,-2 -129,12 -118,-103 79,0 23,41 132,4 58,-20 13,6 42,-16z"/>
  <path class="ed orange" d="M3964 1965c-4,53 -55,91 -94,78 -59,-22 -22,-72 -13,-113l-22 -16c-39,38 -28,57 -25,104l-116 82c-39,41 -45,81 -20,145 43,-3 39,-32 77,-15 30,12 -1,16 36,15 19,0 11,-7 33,-8 26,-2 12,5 37,5 22,0 36,-30 83,51 31,-10 11,-6 39,-30 13,-10 29,-18 45,-25 23,10 18,17 32,19 18,3 14,-5 49,-6l26 76c84,6 28,-15 62,-62 25,4 25,9 37,25 14,-17 100,-84 122,-77 52,42 12,64 16,121 30,23 44,31 48,55 0,0 1,15 1,16l3 12c19,8 86,23 114,20 24,-2 35,-13 50,-18 22,-7 30,-2 54,-8 11,-40 18,-7 5,-51 -7,-21 -6,-22 -25,-36 -41,-32 -1,22 -47,-74 -46,6 -44,22 -86,-22l-22 -31c-20,-38 -2,-24 -14,-62 -10,-32 -13,-6 -24,-44 -9,-31 6,-17 -15,-47 -26,-35 -36,-33 -88,-41l-25 -59c-102,63 -35,22 -115,18 -38,-1 -18,1 -48,-8 -51,-16 -32,3 -63,2 -31,-2 8,-1 -21,-7 -32,-6 -3,8 -86,16z"/>
  <path class="ed orange" d="M3537 1669c-17,28 -15,25 -33,50 -31,40 -10,13 -47,33 27,38 7,41 9,106 0,22 5,45 -2,65 -11,30 -16,16 -39,34 -3,35 -1,21 6,45 8,26 4,22 9,45 12,57 30,3 16,75 58,15 53,15 36,64 51,0 34,-14 78,-5 52,11 31,19 64,26 -28,-133 122,-161 139,-213 9,-28 7,-160 110,-94 6,65 -18,56 -10,109 41,-13 37,-11 59,-46 36,-56 42,-3 99,-45 42,-31 14,-63 85,-73 -6,-101 -7,-88 -99,-100l-49 -73c-32,16 -26,37 -81,19 -6,-24 -3,-15 9,-39 -48,-6 -33,2 -79,-13 -11,26 -34,39 -52,52 -82,59 -41,-37 -155,-2 -49,15 -41,-8 -73,-20z"/>
  <path class="ed orange" d="M4673 2124c-8,-50 -1,-29 18,-64 -27,-1 -25,9 -50,10 -55,1 -37,-34 -118,20 -23,16 -28,8 -41,29 -17,29 -4,47 -2,53 30,78 63,42 102,43 11,23 29,46 43,71 17,30 14,24 46,37l18 8c-5,32 -5,20 1,53l-11 7c-12,10 -20,9 -18,50 44,-5 116,-23 145,-44 15,-11 21,-13 41,-24 29,15 18,18 46,28 40,-34 32,-31 91,-11l10 83c5,40 -23,8 -7,52 14,40 22,103 73,112 2,-1 3,-3 4,-4l7 -9c1,-2 2,-3 3,-5 58,-101 -46,-111 63,-84l17 -33 55 -7c14,-79 -24,-10 3,-80l-19 -11c-11,-6 -7,-5 -16,-8l-18 -5c-18,-7 3,5 -16,-7 -15,-9 -5,-4 -15,-15 -42,-46 -96,-54 -106,-160 33,-25 40,-11 45,-36 -31,-13 -31,-3 -58,-10 -25,-7 -17,-14 -39,-23 -26,-11 -23,0 -47,-15 -22,-14 -2,-15 -38,-26 -68,-10 -66,52 -212,25z"/>
  <path class="ed orange" d="M2950 1394c-12,34 -10,62 -38,86 -49,-12 -10,-5 -47,-40 -78,-74 -63,-56 -102,-28 -23,17 -18,7 -38,20 -6,99 101,124 108,152 -7,46 -28,29 -43,69 21,28 33,14 46,45 10,22 -4,48 -2,87 24,16 43,22 61,43 -7,19 -8,18 -22,29 -27,23 -21,1 -27,32 39,27 44,8 92,4 13,62 43,85 98,103 16,-18 9,-15 35,-25 71,-26 10,-34 142,-62 -2,-44 -9,-48 -13,-81 -20,-15 -14,-3 -39,-15l25 -31c-29,-30 -42,-53 -44,-114 -4,-105 -59,-22 -48,-122 15,-12 30,-20 48,-30l-11 -44c-56,-15 -85,9 -97,-48 -13,-62 -7,-42 -22,-44 -5,-1 -54,11 -62,14z"/>
  <path class="ed orange" d="M2661 2172c-9,-47 -34,-19 -30,-77 4,-57 26,-7 6,-75 -19,-61 -10,-71 -50,-104 -57,-47 -11,4 -95,-5 -14,-24 -25,-63 -22,-98 -45,-23 -42,-4 -58,-53 -71,12 -37,58 -72,90 -9,7 -28,16 -41,44 -12,27 -4,39 -7,74l-42 11c-3,68 -20,23 -34,93 32,14 82,22 115,39 63,32 17,44 79,65 9,70 -11,72 46,108 2,1 4,2 5,3 1,1 3,2 4,3 43,27 -22,-9 14,9 92,-53 58,-30 79,-78 20,-49 48,-21 103,-49z"/>
 </g>
</svg>
