<?xml version="1.0" encoding="UTF-8"?>
<!DOCTYPE svg PUBLIC "-//W3C//DTD SVG 1.1//EN" "http://www.w3.org/Graphics/SVG/1.1/DTD/svg11.dtd">
<!-- Creator: CorelDRAW X7 -->
<svg id="seats23" xmlns="http://www.w3.org/2000/svg" xml:space="preserve" width="90%" version="1.1" style="shape-rendering:geometricPrecision; text-rendering:geometricPrecision; image-rendering:optimizeQuality; fill-rule:evenodd; clip-rule:evenodd"
viewBox="0 0 5650 3150"
 xmlns:xlink="http://www.w3.org/1999/xlink">
 <defs>
  <style type="text/css">
   <![CDATA[
    .fil0 {fill:#7EC6FD;}
    .fil2 {fill:#B270FD}
    .fil3 {fill:#F9817E}
    .fil1 {fill:#FDB47C}
   ]]>
  </style>
 </defs>
 <g id="seats23">
  <metadata id="CorelCorpID_0Corel-Layer"/>
  <g id="seats23">
     <path class="seat seat12 blue" d="M2519 1039c0,191 252,323 418,164 242,-232 -140,-590 -354,-337 -26,32 -64,119 -64,173z"/>
     <path class="seat seat11 blue" d="M2739 1986c382,0 330,-490 34,-490 -324,0 -314,490 -34,490z"/>
     <path class="seat seat13 blue" d="M2519 328c0,124 126,228 236,229 309,4 374,-483 -16,-483 -122,0 -220,123 -220,254z"/>
     <path class="seat seat14 blue" d="M3196 1174c0,279 465,333 486,-3 20,-307 -486,-350 -486,3z"/>
     <path class="seat seat19 blue" d="M4143 2122c0,306 491,306 491,0 0,-323 -491,-323 -491,0z"/>
     <path class="seat seat20 blue" d="M4803 1834c0,332 472,337 481,15 8,-327 -481,-319 -481,-15z"/>
     <path class="seat seat16 blue" d="M3263 2037c0,342 474,326 486,15 2,-65 -27,-123 -66,-164 -196,-208 -420,6 -420,149z"/>
     <path class="seat seat10 orange" d="M1605 497c0,321 474,284 474,34l0 -84c0,-109 -138,-210 -251,-199 -119,10 -223,108 -223,249z"/>
     <path class="seat seat23 purple" d="M4989 2782c0,293 474,340 474,-17 0,-309 -474,-316 -474,17z"/>
     <path class="seat seat15 blue" d="M3466 514c0,154 231,338 412,158 171,-171 15,-412 -158,-412 -151,0 -254,104 -254,254z"/>
     <path class="seat seat17 blue" d="M3771 1546c0,319 474,295 474,34 0,-180 -94,-291 -250,-280 -125,9 -224,113 -224,246z"/>
     <path class="seat seat4 orange" d="M1808 2003c0,191 111,295 248,282 317,-32 285,-485 -11,-485 -70,0 -122,22 -162,58 -34,29 -75,89 -75,145z"/>
     <path class="seat seat8 orange" d="M1013 1259c368,0 354,-474 0,-474 -277,0 -283,474 0,474z"/>
     <path class="seat seat22 purple" d="M4278 2782c0,318 474,294 474,33 0,-198 -72,-270 -270,-270 -118,0 -204,115 -204,237z"/>
     <path class="seat seat6 orange" d="M268 1800c0,364 474,363 474,0 0,-276 -474,-276 -474,0z"/>
     <path class="seat seat9 orange" d="M1876 1123c0,368 474,357 474,0 0,-276 -474,-276 -474,0z"/>
     <path class="seat seat5 orange" d="M928 2071c0,412 474,299 474,51 0,-347 -474,-316 -474,-51z"/>
     <path class="seat seat3 red" d="M82 2748c0,199 72,271 271,271 140,0 299,-225 132,-404 -143,-152 -403,-41 -403,133z"/>
     <path class="seat seat7 orange" d="M1300 1513c0,148 102,251 227,260 301,21 367,-480 -7,-480 -103,0 -220,116 -220,220z"/>
     <path class="seat seat2 red" d="M793 2748c0,411 474,299 474,51 0,-348 -474,-313 -474,-51z"/>
     <path class="seat seat1 red" d="M1503 2748c0,346 321,304 417,196 107,-121 80,-399 -213,-399 -95,0 -204,109 -204,203z"/>
     <path class="seat seat18 blue" d="M4278 1005c0,393 474,323 474,34 0,-84 -18,-112 -62,-158 -168,-175 -412,-41 -412,124z"/>
     <path class="seat seat21 blue" d="M3568 2782c0,288 474,359 474,-34 0,-146 -235,-308 -412,-124 -44,46 -62,74 -62,158z"/>
    </g>
 </g>
</svg>
